<mxfile host="app.diagrams.net" modified="2023-11-12T08:54:04.467Z" agent="Mozilla/5.0 (Windows NT 10.0; Win64; x64) AppleWebKit/537.36 (KHTML, like Gecko) Chrome/119.0.0.0 Safari/537.36" version="22.1.0" etag="VKfk38g6xZcZDPCjsYeA" type="github">
  <diagram name="Page-1" id="XRVCoJlPyZN7MEpg-CTu">
    <mxGraphModel>
      <root>
        <mxCell id="0" />
        <mxCell id="1" parent="0" />
      </root>
    </mxGraphModel>
  </diagram>
</mxfile>
